<svg width="18" height="18" viewBox="0 0 18 18" fill="none" xmlns="http://www.w3.org/2000/svg">
<path fill-rule="evenodd" clip-rule="evenodd" d="M16.875 12.375C16.875 13.1979 16.0161 14.0625 15.1875 14.0625H10.6875L9 16.3125L7.3125 14.0625H2.8125C1.98394 14.0625 1.125 13.1979 1.125 12.375V2.8125C1.125 1.98956 1.98394 1.125 2.8125 1.125H15.1875C16.0161 1.125 16.875 1.98956 16.875 2.8125V12.375ZM15.0002 0H2.99982C1.34325 0 0 1.33369 0 2.97956V12.4802C0 14.1249 1.15594 15.1875 2.8125 15.1875H6.54694L9 18.0006L11.4531 15.1875H15.1875C16.8441 15.1875 18 14.1249 18 12.4802V2.97956C18 1.33369 16.6567 0 15.0002 0Z" fill="#6B7280"/>
</svg>
