<svg width="22" height="22" viewBox="0 0 22 22" fill="none" xmlns="http://www.w3.org/2000/svg">
<g id="building-svgrepo-com (1) 1">
<path id="Vector" fill-rule="evenodd" clip-rule="evenodd" d="M8.18835 1.83301C7.37574 1.83296 6.67558 1.83293 6.11489 1.90831C5.514 1.9891 4.93801 2.17128 4.47082 2.63847C4.00363 3.10566 3.82145 3.68165 3.74066 4.28254C3.66527 4.84322 3.66532 5.54339 3.66536 6.356V18.333H2.7487C2.24244 18.333 1.83203 18.7434 1.83203 19.2497C1.83203 19.756 2.24244 20.1663 2.7487 20.1663H19.2487C19.755 20.1663 20.1654 19.756 20.1654 19.2497C20.1654 18.7434 19.755 18.333 19.2487 18.333H18.332V6.356C18.3321 5.54339 18.3321 4.84322 18.2568 4.28254C18.1759 3.68165 17.9938 3.10566 17.5266 2.63847C17.0594 2.17128 16.4834 1.9891 15.8825 1.90831C15.3218 1.83293 14.6216 1.83296 13.809 1.83301H8.18835ZM10.082 7.33301C10.082 7.83927 9.67164 8.24968 9.16536 8.24968H8.2487C7.74244 8.24968 7.33203 7.83927 7.33203 7.33301C7.33203 6.82675 7.74244 6.41634 8.2487 6.41634H9.16536C9.67164 6.41634 10.082 6.82675 10.082 7.33301ZM9.16536 11.9163C9.67164 11.9163 10.082 11.506 10.082 10.9997C10.082 10.4934 9.67164 10.083 9.16536 10.083H8.2487C7.74244 10.083 7.33203 10.4934 7.33203 10.9997C7.33203 11.506 7.74244 11.9163 8.2487 11.9163H9.16536ZM10.082 14.6663C10.082 15.1726 9.67164 15.583 9.16536 15.583H8.2487C7.74244 15.583 7.33203 15.1726 7.33203 14.6663C7.33203 14.1601 7.74244 13.7497 8.2487 13.7497H9.16536C9.67164 13.7497 10.082 14.1601 10.082 14.6663ZM13.7487 8.24968C14.255 8.24968 14.6654 7.83927 14.6654 7.33301C14.6654 6.82675 14.255 6.41634 13.7487 6.41634H12.832C12.3258 6.41634 11.9154 6.82675 11.9154 7.33301C11.9154 7.83927 12.3258 8.24968 12.832 8.24968H13.7487ZM14.6654 10.9997C14.6654 11.506 14.255 11.9163 13.7487 11.9163H12.832C12.3258 11.9163 11.9154 11.506 11.9154 10.9997C11.9154 10.4934 12.3258 10.083 12.832 10.083H13.7487C14.255 10.083 14.6654 10.4934 14.6654 10.9997ZM13.7487 15.583C14.255 15.583 14.6654 15.1726 14.6654 14.6663C14.6654 14.1601 14.255 13.7497 13.7487 13.7497H12.832C12.3258 13.7497 11.9154 14.1601 11.9154 14.6663C11.9154 15.1726 12.3258 15.583 12.832 15.583H13.7487Z" fill="#6B7280"/>
</g>
</svg>
