<svg width="22" height="22" viewBox="0 0 22 22" fill="none" xmlns="http://www.w3.org/2000/svg">
<g id="home-svgrepo-com 1">
<path id="Vector" fill-rule="evenodd" clip-rule="evenodd" d="M2.30796 7.17052C1.83203 8.04001 1.83203 9.08887 1.83203 11.1866V12.5809C1.83203 16.1567 1.83203 17.9446 2.90597 19.0554C3.97992 20.1663 5.70839 20.1663 9.16536 20.1663H12.832C16.289 20.1663 18.0175 20.1663 19.0914 19.0554C20.1654 17.9446 20.1654 16.1567 20.1654 12.5809V11.1866C20.1654 9.08887 20.1654 8.04001 19.6894 7.17052C19.2135 6.30103 18.344 5.76139 16.605 4.68212L14.7717 3.54431C12.9334 2.40344 12.0143 1.83301 10.9987 1.83301C9.98312 1.83301 9.06397 2.40344 7.22573 3.54431L5.39239 4.68213C3.6534 5.76139 2.7839 6.30103 2.30796 7.17052ZM8.2487 15.8122C7.86901 15.8122 7.5612 16.12 7.5612 16.4997C7.5612 16.8794 7.86901 17.1872 8.2487 17.1872H13.7487C14.1284 17.1872 14.4362 16.8794 14.4362 16.4997C14.4362 16.12 14.1284 15.8122 13.7487 15.8122H8.2487Z" fill="#005BFF"/>
</g>
</svg>
