<svg width="93" height="36" viewBox="0 0 93 36" fill="none" xmlns="http://www.w3.org/2000/svg">
<path fill-rule="evenodd" clip-rule="evenodd" d="M18.0225 24.0068L14.693 23.129L6.18768 32L3.32964 20.133L0 19.2551L2.49162 16.6564L5.82574 17.5354L7.84428 25.9166L13.8513 19.6514L17.1853 20.5304L18.0225 24.0068Z" fill="#34A353"/>
<path fill-rule="evenodd" clip-rule="evenodd" d="M17.5085 19.3436L17.5078 19.3443L17.508 19.345L14.174 18.466L14.1745 18.4654L14.1743 18.4646L12.1559 10.0834L6.14885 16.3486L6.14826 16.3493L6.14848 16.35L2.81435 15.471L2.81491 15.4705L2.81473 15.4696L1.97745 11.9933L5.30709 12.8712L13.8125 4L16.6705 15.8672L20 16.745L17.5085 19.3436Z" fill="#34A353"/>
<path d="M32.4703 26V23.74C32.777 23.76 33.037 23.7333 33.2503 23.66C33.4636 23.5867 33.6436 23.4533 33.7903 23.26C33.9436 23.06 34.077 22.7867 34.1903 22.44C34.3036 22.0867 34.4103 21.6467 34.5103 21.12C34.6703 20.2867 34.8036 19.41 34.9103 18.49C35.0236 17.5633 35.117 16.6567 35.1903 15.77C35.2636 14.8833 35.3203 14.0767 35.3603 13.35C35.4003 12.6167 35.4303 12.0333 35.4503 11.6H45.2703V26H42.5503V14.14H37.9503C37.9236 14.5133 37.887 15 37.8403 15.6C37.8003 16.2 37.7436 16.8633 37.6703 17.59C37.597 18.3167 37.507 19.07 37.4003 19.85C37.2936 20.63 37.1636 21.3867 37.0103 22.12C36.8703 22.8333 36.7003 23.4667 36.5003 24.02C36.3003 24.5667 36.0336 25.0167 35.7003 25.37C35.3736 25.7167 34.9503 25.9467 34.4303 26.06C33.9103 26.1733 33.257 26.1533 32.4703 26ZM52.9397 26.3C51.853 26.3 50.8997 26.0567 50.0797 25.57C49.2597 25.0833 48.6197 24.4133 48.1597 23.56C47.7064 22.7 47.4797 21.7133 47.4797 20.6C47.4797 19.4733 47.713 18.4833 48.1797 17.63C48.6464 16.77 49.2897 16.1 50.1097 15.62C50.9297 15.14 51.873 14.9 52.9397 14.9C54.0264 14.9 54.9797 15.1433 55.7997 15.63C56.6264 16.1167 57.2697 16.79 57.7297 17.65C58.1897 18.5033 58.4197 19.4867 58.4197 20.6C58.4197 21.72 58.1864 22.71 57.7197 23.57C57.2597 24.4233 56.6164 25.0933 55.7897 25.58C54.9697 26.06 54.0197 26.3 52.9397 26.3ZM52.9397 23.76C53.813 23.76 54.463 23.4667 54.8897 22.88C55.323 22.2867 55.5397 21.5267 55.5397 20.6C55.5397 19.64 55.3197 18.8733 54.8797 18.3C54.4464 17.7267 53.7997 17.44 52.9397 17.44C52.3464 17.44 51.8597 17.5733 51.4797 17.84C51.0997 18.1067 50.8164 18.4767 50.6297 18.95C50.4497 19.4233 50.3597 19.9733 50.3597 20.6C50.3597 21.5667 50.5764 22.3367 51.0097 22.91C51.4497 23.4767 52.093 23.76 52.9397 23.76ZM60.5988 26L60.6188 15.2H63.3788V20.4L67.0388 15.2H70.3988L66.4988 20.6L70.6588 26H67.1188L63.3788 20.8V26H60.5988ZM73.0339 30.8L75.1139 25.08L75.1539 26.76L70.4539 15.2H73.2739L76.4339 23.38H75.7939L78.9339 15.2H81.6539L75.5539 30.8H73.0339ZM87.4295 26.3C86.3095 26.3 85.3495 26.05 84.5495 25.55C83.7495 25.05 83.1362 24.37 82.7095 23.51C82.2829 22.65 82.0695 21.68 82.0695 20.6C82.0695 19.5067 82.2895 18.53 82.7295 17.67C83.1762 16.81 83.8029 16.1333 84.6095 15.64C85.4162 15.1467 86.3695 14.9 87.4695 14.9C88.7429 14.9 89.8095 15.2233 90.6695 15.87C91.5362 16.51 92.0895 17.3867 92.3295 18.5L89.6095 19.22C89.4495 18.66 89.1695 18.2233 88.7695 17.91C88.3762 17.5967 87.9295 17.44 87.4295 17.44C86.8562 17.44 86.3862 17.58 86.0195 17.86C85.6529 18.1333 85.3829 18.51 85.2095 18.99C85.0362 19.4633 84.9495 20 84.9495 20.6C84.9495 21.54 85.1562 22.3033 85.5695 22.89C85.9895 23.47 86.6095 23.76 87.4295 23.76C88.0429 23.76 88.5095 23.62 88.8295 23.34C89.1495 23.06 89.3895 22.66 89.5495 22.14L92.3295 22.72C92.0229 23.8667 91.4429 24.75 90.5895 25.37C89.7362 25.99 88.6829 26.3 87.4295 26.3Z" fill="black"/>
</svg>
