<svg width="21" height="22" viewBox="0 0 21 22" fill="none" xmlns="http://www.w3.org/2000/svg">
<g id="comment-svgrepo-com 1">
<path id="Vector" d="M9.59766 16.9226C13.5588 16.3433 16.6257 13.1295 16.6257 9.19546C16.6263 8.63243 16.5629 8.07116 16.4367 7.52246C18.1289 8.53046 19.2507 10.2892 19.2507 12.2903C19.2494 13.3888 18.9093 14.4601 18.2768 15.3581C18.3293 16.1885 18.6233 16.9165 19.1605 17.543C19.2094 17.5995 19.2404 17.6692 19.2495 17.7434C19.2586 17.8175 19.2454 17.8927 19.2116 17.9594C19.1778 18.026 19.125 18.0811 19.0598 18.1175C18.9946 18.154 18.92 18.1703 18.8455 18.1642C17.6494 18.0671 16.6712 17.7915 15.9108 17.3373C15.0396 17.7471 14.0884 17.9584 13.1257 17.956C11.8742 17.9616 10.6483 17.6025 9.59766 16.9226Z" fill="#6B7280"/>
<path id="Vector_2" d="M6.67187 15.0749C7.19687 15.1991 7.74637 15.2656 8.3125 15.2656C11.9367 15.2656 14.875 12.5479 14.875 9.19487C14.875 5.84363 11.9367 3.125 8.3125 3.125C4.68825 3.125 1.75 5.84275 1.75 9.19575C1.75 10.8985 2.50775 12.4376 3.72925 13.5401C3.62579 14.2827 3.30803 14.9791 2.81487 15.5439C2.76236 15.6043 2.72908 15.6791 2.71929 15.7586C2.70949 15.8381 2.72363 15.9187 2.7599 15.9901C2.79616 16.0615 2.85291 16.1204 2.92287 16.1594C2.99283 16.1984 3.07282 16.2156 3.15262 16.2089C4.64012 16.0881 5.8135 15.7101 6.67187 15.0749Z" fill="#6B7280"/>
</g>
</svg>
